<svg width="44" height="44" viewBox="0 0 44 44" fill="none" xmlns="http://www.w3.org/2000/svg">
<path fill-rule="evenodd" clip-rule="evenodd" d="M15.433 5.95833C15.9463 4.87667 17.0537 4.125 18.3333 4.125H25.6667C26.9463 4.125 28.0518 4.87667 28.567 5.95833C29.8192 5.96933 30.7963 6.02617 31.669 6.36717C32.7107 6.77466 33.6167 7.46719 34.2833 8.3655C34.9562 9.27117 35.2733 10.4317 35.706 12.0285L37.0663 17.0188L37.5797 18.5607L37.6237 18.6157C39.2755 20.7313 38.489 23.8773 36.916 30.1675C35.915 34.1697 35.4163 36.1698 33.924 37.3358C32.4317 38.5 30.3692 38.5 26.2442 38.5H17.7558C13.6308 38.5 11.5683 38.5 10.076 37.3358C8.58367 36.1698 8.08317 34.1697 7.084 30.1675C5.511 23.8773 4.7245 20.7313 6.37633 18.6157L6.42033 18.5607L6.93367 17.0188L8.294 12.0285C8.7285 10.4317 9.04567 9.26933 9.71667 8.36367C10.3835 7.46603 11.2895 6.77416 12.331 6.36717C13.2037 6.02617 14.179 5.9675 15.433 5.95833ZM15.4367 8.71383C14.223 8.72667 13.7353 8.7725 13.332 8.93017C12.7709 9.14958 12.283 9.52253 11.924 10.0063C11.6013 10.4408 11.4107 11.0477 10.879 13.0038L9.834 16.8337C11.704 16.5 14.2597 16.5 17.754 16.5H26.2442C29.7403 16.5 32.2942 16.5 34.1642 16.83L33.121 13.0002C32.5893 11.044 32.3987 10.4372 32.076 10.0027C31.717 9.51887 31.2291 9.14592 30.668 8.9265C30.2647 8.76883 29.777 8.723 28.5633 8.71017C28.303 9.25805 27.8927 9.72092 27.38 10.0451C26.8673 10.3693 26.2732 10.5414 25.6667 10.5417H18.3333C17.7269 10.5416 17.133 10.3697 16.6203 10.0459C16.1076 9.72203 15.6972 9.26138 15.4367 8.71383Z" fill="white"/>
</svg>
