<svg width="30" height="30" viewBox="0 0 30 30" fill="none" xmlns="http://www.w3.org/2000/svg">
<path d="M15 0.333344C16.9449 0.333344 18.8102 1.10596 20.1854 2.48123C21.5607 3.85649 22.3333 5.72176 22.3333 7.66668C22.3333 9.6116 21.5607 11.4769 20.1854 12.8521C18.8102 14.2274 16.9449 15 15 15C13.0551 15 11.1898 14.2274 9.81453 12.8521C8.43926 11.4769 7.66665 9.6116 7.66665 7.66668C7.66665 5.72176 8.43926 3.85649 9.81453 2.48123C11.1898 1.10596 13.0551 0.333344 15 0.333344ZM15 18.6667C23.1033 18.6667 29.6666 21.9483 29.6666 26V29.6667H0.333313V26C0.333313 21.9483 6.89665 18.6667 15 18.6667Z" fill="white"/>
</svg>
